<svg version="1.1" xmlns="http://www.w3.org/2000/svg" xmlns:xlink="http://www.w3.org/1999/xlink" width="302.30999755859375" height="119.51000213623047"><defs></defs><g transform="translate(-152.12200927734375,51.730003356933594)"><rect fill="rgb(255,255,255)" stroke="none" x="0" y="0" width="302.30999755859375" height="119.51000213623047" fill-opacity="0" transform="translate(152.12200927734375,-51.730003356933594)"></rect><g transform="translate(151.50201416015625,60) rotate(0,0,0) translate(-151.50201416015625,-60) matrix(1,0,0,1,151.50201416015625,60)"><path fill="rgb(100, 100, 100)" fill-opacity="1" d="M52.97-46.13Q54.07-45.30 54.07-43.46L54.07-43.46Q54.07-41.62 52.88-39.46Q51.68-37.30 49.84-35.87Q48.00-34.45 46.25-34.45L46.25-34.45Q42.39-34.45 41.29-41.53L41.29-41.53Q40.92-44.11 40.92-47.33L40.92-47.33Q40.92-48.98 41.10-52.48L41.10-52.48L41.19-57.63Q41.19-61.68 41.38-69.77L41.38-69.77Q41.65-77.96 41.65-86.06L41.65-86.06Q39.35-79.89 35.86-69.13L35.86-69.13Q34.85-66.00 33.83-63.98Q32.82-61.95 30.89-60.39L30.89-60.39Q29.05-58.83 27.21-58.83L27.21-58.83Q23.71-58.83 21.41-63.52Q19.11-68.21 17.46-74.10L17.46-74.10L16.63-67.29Q15.43-58.09 14.47-52.57Q13.50-47.05 11.66-41.53L11.66-41.53Q10.28-37.39 8.49-34.49Q6.69-31.59 3.84-31.59L3.84-31.59Q0.62-31.59 0.62-34.91L0.62-34.91Q0.62-37.21 2.00-40.15L2.00-40.15Q1.91-39.97 1.86-39.83Q1.82-39.69 1.73-39.69L1.73-39.69L2.28-41.44Q3.11-44.20 3.75-47.97L3.75-47.97Q5.13-54.96 6.33-63.70L6.33-63.70L8.53-79.80Q9.55-88.45 10.74-96.45L10.74-96.45Q11.39-101.15 12.17-103.86Q12.95-106.57 15.07-109.06L15.07-109.06Q16.08-110.25 17.41-110.99Q18.75-111.73 19.94-111.73L19.94-111.73Q21.97-111.73 22.98-109.89L22.98-109.89Q23.71-108.51 23.90-105.38L23.90-105.38L24.17-103.17Q24.82-99.77 25.83-95.72L25.83-95.72Q28.31-85.78 30.34-80.45L30.34-80.45Q31.07-82.65 31.26-83.11L31.26-83.11Q33.83-90.66 35.90-95.63Q37.97-100.59 40.92-104.83L40.92-104.83Q42.30-106.76 44.05-108.18Q45.79-109.61 47.54-109.61L47.54-109.61Q49.47-109.61 50.35-108.28Q51.22-106.94 51.45-105.61Q51.68-104.27 51.96-101.15L51.96-101.15Q52.33-97.01 52.33-91.58L52.33-91.58Q52.33-87.62 51.96-79.53L51.96-79.53Q51.87-77.87 51.77-75.39Q51.68-72.90 51.68-69.59L51.68-69.59L51.59-63.33Q51.59-60.30 51.77-54.41L51.77-54.41L51.68-51.47Q51.68-47.23 52.97-46.13L52.97-46.13ZM80.85-89.19Q80.66-91.12 83.28-92.64Q85.91-94.15 88.48-94.15L88.48-94.15Q91.33-94.15 91.61-92.22L91.61-92.22Q93.63-77.50 94.74-66.92Q95.84-56.34 95.84-45.95L95.84-45.95Q95.84-31.96 93.63-21.20L93.63-21.20Q91.89-12.64 88.57-5.83Q85.26 0.97 79.47 4.75L79.47 4.75Q74.68 7.78 69.81 7.78L69.81 7.78Q65.30 7.78 60.97 5.44Q56.65 3.09 52.88-0.96L52.88-0.96Q52.14-1.88 52.14-2.52L52.14-2.52Q52.14-4.36 54.76-5.97Q57.39-7.58 60.05-7.58L60.05-7.58Q61.89-7.58 62.91-6.57L62.91-6.57Q63.37-6.11 65.11-4.27Q66.86-2.43 68.75-1.14Q70.63 0.15 72.20 0.15L72.20 0.15Q73.03 0.15 73.39-0.04L73.39-0.04Q75.14-0.68 76.48-3.07Q77.81-5.47 78.64-7.49Q79.47-9.51 79.65-9.97L79.65-9.97Q81.86-15.49 82.87-21.61Q83.88-27.73 84.25-35.27L84.25-35.27Q84.43-41.16 84.43-44.20L84.43-44.20Q82.04-39.87 78.82-37.44Q75.60-35.00 71.00-35.00L71.00-35.00Q64.47-35.00 62.49-40.84Q60.51-46.68 60.42-55.15L60.42-55.15L60.33-58.83Q60.33-73.18 63.27-85.78L63.27-85.78Q63.64-87.53 66.40-88.91Q69.16-90.29 71.65-90.29L71.65-90.29Q72.93-90.29 73.67-89.74Q74.41-89.19 74.22-88.17L74.22-88.17Q72.11-77.50 71.55-65.08L71.55-65.08Q71.37-61.22 71.37-59.10L71.37-59.10Q71.37-55.61 71.83-51.28L71.83-51.28Q72.38-47.42 73.12-45.76L73.12-45.76L73.85-44.29Q74.50-45.49 75.60-47.88L75.60-47.88Q77.90-53.77 79.28-62.05L79.28-62.05L80.11-66.55Q81.86-74.74 81.86-79.53L81.86-79.53Q81.86-81.92 81.67-83.11L81.67-83.11L80.85-89.19ZM167.23-43.74Q166.77-43.19 165.07-40.79Q163.37-38.40 161.39-36.70Q159.41-35.00 157.76-35.00L157.76-35.00Q156.75-35.00 155.83-35.64L155.83-35.64Q155.00-36.19 154.63-37.48Q154.26-38.77 153.89-40.98L153.89-40.98Q153.34-44.29 152.47-45.90Q151.59-47.51 149.48-47.14L149.48-47.14Q148.10-46.87 146.35-45.30Q144.60-43.74 143.22-42.27Q141.84-40.79 141.29-40.24L141.29-40.24L139.45-38.49Q138.07-37.02 137.06-36.10Q136.05-35.18 134.85-34.63L134.85-34.63Q133.47-33.99 132.37-33.99L132.37-33.99Q129.97-33.99 129.97-37.85L129.97-37.85Q129.97-39.78 130.34-41.99Q130.71-44.20 130.80-44.57L130.80-44.57Q134.85-75.29 137.33-92.13L137.33-92.13Q138.35-98.48 140.05-103.26Q141.75-108.05 145.71-109.15L145.71-109.15Q146.63-109.33 146.90-109.33L146.90-109.33Q148.37-109.33 149.02-108.28Q149.66-107.22 149.66-105.47L149.66-105.47Q149.66-103.81 149.11-102.07Q148.56-100.32 147.82-99.31L147.82-99.31L147.82-98.11Q147.82-96.73 147.50-94.98Q147.18-93.23 147.09-92.50L147.09-92.50L145.43-80.54L141.66-53.21Q145.25-56.43 148.37-58.55Q151.50-60.67 154.54-60.67L154.54-60.67Q158.68-60.67 160.70-57.17Q162.73-53.67 164.20-48.25L164.20-48.25Q165.58-49.72 166.77-49.72L166.77-49.72Q167.60-49.72 168.06-48.98Q168.52-48.25 168.52-47.14L168.52-47.14Q168.52-45.12 167.23-43.74L167.23-43.74ZM200.26-56.16Q202.38-61.13 202.38-66.37L202.38-66.37Q202.38-70.51 200.95-73.96Q199.53-77.41 196.49-79.62L196.49-79.62Q194.47-81.09 192.63-81.09L192.63-81.09Q191.89-81.09 190.79-80.72L190.79-80.72Q191.61-80.35 191.61-79.43L191.61-79.43Q191.61-78.88 191.25-78.15L191.25-78.15Q189.13-74.10 187.93-69.36Q186.74-64.62 186.74-59.84L186.74-59.84Q186.74-54.32 188.39-49.35L188.39-49.35Q189.50-46.59 190.69-45.03L190.69-45.03Q191.25-44.38 191.80-44.11L191.80-44.11Q194.47-45.95 196.63-49.26Q198.79-52.57 200.26-56.16L200.26-56.16ZM198.97-88.45Q203.48-87.53 206.70-84.49Q209.92-81.46 211.58-77.18Q213.23-72.90 213.23-68.30L213.23-68.30Q213.23-62.87 211.12-57.17Q209.00-51.47 205.32-46.68Q201.64-41.90 197.13-39.14L197.13-39.14Q192.90-36.56 188.85-36.56L188.85-36.56Q184.81-36.56 181.77-39.05Q178.73-41.53 177.35-46.22L177.35-46.22Q175.79-51.01 175.79-56.99L175.79-56.99Q175.79-60.57 176.34-63.98L176.34-63.98Q175.70-63.79 174.41-63.79L174.41-63.79Q171.28-63.79 171.28-65.91L171.28-65.91Q171.28-66.65 171.47-67.11L171.47-67.11Q174.59-75.85 180.90-82.33Q187.20-88.82 195.39-88.82L195.39-88.82Q196.58-88.82 198.97-88.45L198.97-88.45ZM258.59-68.85Q258.68-68.76 258.68-68.58L258.68-68.58Q259.33-62.78 259.33-56.07L259.33-56.07Q259.33-48.61 258.41-41.81L258.41-41.81Q258.13-39.97 255.55-38.54Q252.98-37.11 250.49-37.11L250.49-37.11Q249.02-37.11 248.19-37.71Q247.37-38.31 247.46-39.60L247.46-39.60Q248.38-48.06 248.38-54.59L248.38-54.59Q245.53-47.33 240.65-42.31Q235.77-37.30 229.33-37.30L229.33-37.30Q227.95-37.30 226.57-37.57L226.57-37.57Q220.59-38.59 218.02-43.05Q215.44-47.51 215.44-54.04L215.44-54.04Q215.44-60.48 217.56-68.03L217.56-68.03Q219.21-73.73 222.48-79.02Q225.75-84.31 230.44-87.71Q235.13-91.12 240.74-91.12L240.74-91.12Q245.53-91.12 247.73-89.28Q249.94-87.44 249.94-84.40L249.94-84.40Q249.94-80.63 247.18-76.08Q244.42-71.52 241.29-69.13L241.29-69.13Q240.37-68.49 238.81-68.07Q237.25-67.66 235.77-67.66L235.77-67.66Q234.12-67.66 233.11-68.12Q232.09-68.58 232.09-69.41L232.09-69.41Q232.09-70.60 233.93-72.17L233.93-72.17Q235.13-73.18 237.20-76.54Q239.27-79.89 239.27-81.83L239.27-81.83Q239.27-83.57 237.34-83.57L237.34-83.57Q234.58-83.57 230.81-75.29L230.81-75.29Q228.69-71.15 227.68-66.28L227.68-66.28Q226.39-60.39 226.39-55.42L226.39-55.42Q226.39-46.50 231.27-45.58L231.27-45.58Q233.20-45.30 235.08-48.48Q236.97-51.65 238.35-55.97L238.35-55.97Q237.15-55.33 234.76-54.23L234.76-54.23Q233.29-53.58 231.54-53.58L231.54-53.58Q229.70-53.58 228.78-54.50L228.78-54.50Q228.23-55.24 228.23-55.88L228.23-55.88Q228.23-56.71 228.74-57.49Q229.24-58.27 229.98-58.73L229.98-58.73Q241.66-66.74 252.24-71.52L252.24-71.52Q253.07-71.89 254.27-71.89L254.27-71.89Q256.11-71.89 257.49-71.02Q258.87-70.14 258.59-68.85L258.59-68.85ZM289.96-56.16Q292.08-61.13 292.08-66.37L292.08-66.37Q292.08-70.51 290.65-73.96Q289.23-77.41 286.19-79.62L286.19-79.62Q284.17-81.09 282.33-81.09L282.33-81.09Q281.59-81.09 280.49-80.72L280.49-80.72Q281.31-80.35 281.31-79.43L281.31-79.43Q281.31-78.88 280.95-78.15L280.95-78.15Q278.83-74.10 277.63-69.36Q276.44-64.62 276.44-59.84L276.44-59.84Q276.44-54.32 278.09-49.35L278.09-49.35Q279.20-46.59 280.39-45.03L280.39-45.03Q280.95-44.38 281.50-44.11L281.50-44.11Q284.17-45.95 286.33-49.26Q288.49-52.57 289.96-56.16L289.96-56.16ZM288.67-88.45Q293.18-87.53 296.40-84.49Q299.62-81.46 301.28-77.18Q302.93-72.90 302.93-68.30L302.93-68.30Q302.93-62.87 300.82-57.17Q298.70-51.47 295.02-46.68Q291.34-41.90 286.83-39.14L286.83-39.14Q282.60-36.56 278.55-36.56L278.55-36.56Q274.51-36.56 271.47-39.05Q268.43-41.53 267.05-46.22L267.05-46.22Q265.49-51.01 265.49-56.99L265.49-56.99Q265.49-60.57 266.04-63.98L266.04-63.98Q265.40-63.79 264.11-63.79L264.11-63.79Q260.98-63.79 260.98-65.91L260.98-65.91Q260.98-66.65 261.17-67.11L261.17-67.11Q264.29-75.85 270.60-82.33Q276.90-88.82 285.09-88.82L285.09-88.82Q286.28-88.82 288.67-88.45L288.67-88.45Z"></path></g></g></svg>